HIERARCHY
ROOT root
{
	OFFSET 0.000000 0.000000 0.000000
	CHANNELS 6 Xposition Yposition Zposition Zrotation Yrotation Xrotation
	JOINT lhip
	{
		OFFSET 0.058581 -0.082280 -0.017664
		CHANNELS 3 Zrotation Yrotation Xrotation
		JOINT lknee
		{
			OFFSET 0.043451 -0.386469 0.008037
			CHANNELS 3 Zrotation Yrotation Xrotation
			JOINT lankle
			{
				OFFSET -0.014790 -0.426874 -0.037428
				CHANNELS 3 Zrotation Yrotation Xrotation
				JOINT ltoe
				{
					OFFSET 0.041054 -0.060286 0.122042
					CHANNELS 3 Zrotation Yrotation Xrotation
					End Site
					{
						OFFSET 0.000000 0.000000 0.000000
					}
				}
			}
		}
	}
	JOINT rhip
	{
		OFFSET -0.060310 -0.090513 -0.013543
		CHANNELS 3 Zrotation Yrotation Xrotation
		JOINT rknee
		{
			OFFSET -0.043257 -0.383688 -0.004843
			CHANNELS 3 Zrotation Yrotation Xrotation
			JOINT rankle
			{
				OFFSET 0.019056 -0.420046 -0.034562
				CHANNELS 3 Zrotation Yrotation Xrotation
				JOINT rtoe
				{
					OFFSET -0.034840 -0.062106 0.130323
					CHANNELS 3 Zrotation Yrotation Xrotation
					End Site
					{
						OFFSET 0.000000 0.000000 0.000000
					}
				}
			}
		}
	}
	JOINT lowerback
	{
		OFFSET 0.004439 0.124404 -0.038385
		CHANNELS 3 Zrotation Yrotation Xrotation
		JOINT upperback
		{
			OFFSET 0.004488 0.137956 0.026820
			CHANNELS 3 Zrotation Yrotation Xrotation
			JOINT chest
			{
				OFFSET -0.002265 0.056032 0.002855
				CHANNELS 3 Zrotation Yrotation Xrotation
				JOINT lowerneck
				{
					OFFSET -0.013390 0.211636 -0.033468
					CHANNELS 3 Zrotation Yrotation Xrotation
					JOINT upperneck
					{
						OFFSET 0.010113 0.088937 0.050410
						CHANNELS 3 Zrotation Yrotation Xrotation
						End Site
						{
							OFFSET 0.000000 0.000000 0.000000
						}
					}
				}
				JOINT lclavicle
				{
					OFFSET 0.071702 0.114000 -0.018898
					CHANNELS 3 Zrotation Yrotation Xrotation
					JOINT lshoulder
					{
						OFFSET 0.122921 0.045205 -0.019046
						CHANNELS 3 Zrotation Yrotation Xrotation
						JOINT lelbow
						{
							OFFSET 0.255332 -0.015649 -0.022946
							CHANNELS 3 Zrotation Yrotation Xrotation
							JOINT lwrist
							{
								OFFSET 0.265709 0.012698 -0.007375
								CHANNELS 3 Zrotation Yrotation Xrotation
								End Site
								{
									OFFSET 0.000000 0.000000 0.000000
								}
							}
						}
					}
				}
				JOINT rclavicle
				{
					OFFSET -0.082954 0.112472 -0.023707
					CHANNELS 3 Zrotation Yrotation Xrotation
					JOINT rshoulder
					{
						OFFSET -0.113228 0.046853 -0.008472
						CHANNELS 3 Zrotation Yrotation Xrotation
						JOINT relbow
						{
							OFFSET -0.260127 -0.014369 -0.031269
							CHANNELS 3 Zrotation Yrotation Xrotation
							JOINT rwrist
							{
								OFFSET -0.269108 0.006794 -0.006027
								CHANNELS 3 Zrotation Yrotation Xrotation
								End Site
								{
									OFFSET 0.000000 0.000000 0.000000
								}
							}
						}
					}
				}
			}
		}
	}
}
MOTION
Frames: 8
Frame Time: 0.033333
0.053456 -0.249312 0.829566 170.688197 9.401788 107.080223 -0.115801 2.122538 -7.172657 -5.501362 3.083108 75.890481 4.233825 12.976079 -17.712552 0.000000 -0.000000 0.000000 -7.449450 2.760645 -50.865580 4.646105 -12.381602 66.158466 -3.736012 -9.081168 -32.284633 0.000000 -0.000000 0.000000 6.786500 -10.104558 33.551504 4.639534 0.560936 1.620104 1.721594 -2.594510 1.357573 3.089588 5.714854 -13.887236 -12.077070 21.227106 -13.380179 -25.964305 -7.429755 9.695905 -58.445085 21.474700 6.887900 -5.274615 -58.404257 20.713929 24.925014 -6.623318 -7.033768 9.889146 26.115562 -9.437238 49.912299 39.319700 16.016150 -121.012051 63.675721 -97.118366 -1.922647 11.462458 29.896013 
0.051186 -0.150875 0.833535 167.591629 8.333105 105.367548 2.071025 0.763156 -22.398168 -4.902234 8.193685 90.709145 5.571768 13.265640 -20.883014 0.000000 -0.000000 0.000000 -7.219169 0.499750 -40.991762 6.470502 -6.966209 64.074678 -2.207991 -8.219243 -35.307899 0.000000 -0.000000 0.000000 6.805252 -4.222010 36.900205 1.351972 3.125870 0.871620 0.952467 0.705679 1.388605 2.581985 -1.065377 -15.399510 -8.137762 17.185588 -15.565897 -28.954547 -6.757088 9.674985 -53.232917 26.709403 7.771695 -8.665562 -53.613579 18.167497 29.648361 -3.780800 -7.326966 10.746307 28.129282 -7.918794 34.688195 35.133179 5.803394 -85.162214 68.539483 -68.817866 -3.991974 13.018269 30.734447 
0.047717 -0.051086 0.842935 165.634700 6.671975 103.872077 6.942398 -0.600580 -38.729200 -4.060818 12.082896 93.718078 5.907936 14.035340 -23.432040 0.000000 -0.000000 0.000000 -9.381089 -3.710004 -29.889135 10.109139 0.162265 59.223265 0.783068 -5.832480 -34.714032 0.000000 -0.000000 0.000000 5.967067 3.065950 38.460193 -0.429303 4.576954 2.602002 0.927697 3.337112 1.928857 1.713264 -5.036038 -16.444909 -4.725289 9.689420 -15.862410 -29.755854 -5.136274 9.627077 -47.598054 27.064141 9.798681 -11.978557 -54.018525 19.687797 30.184223 -3.404432 -9.611579 13.732500 29.507099 -4.064210 17.837457 31.531005 -4.972988 -32.003708 54.935124 -23.825461 -8.758831 16.315029 35.828693 
0.042247 0.055842 0.855673 164.722425 4.819865 103.642066 12.887733 0.527142 -51.919809 -0.910094 16.582036 84.631556 6.238047 14.618963 -24.076983 0.000000 -0.000000 0.000000 -14.211766 -7.270145 -18.722940 12.066029 5.908739 51.850053 5.677498 -1.106810 -29.013441 0.000000 -0.000000 0.000000 4.503333 10.543364 38.733053 -1.158176 5.301651 4.883268 1.289493 5.122817 0.992685 1.769940 -7.958413 -17.308190 -2.264329 2.366691 -12.983881 -29.632971 -4.927116 9.758687 -46.014964 23.837038 12.721139 -9.899751 -52.815562 19.239278 29.233789 -3.715661 -11.051719 15.844141 31.264822 -0.447512 8.044977 27.948527 -11.303570 -14.476183 25.110797 -14.554306 -5.907503 13.981292 39.279854 
0.035387 0.167987 0.870732 166.510941 2.974126 105.466291 15.991724 3.289111 -60.456205 -3.001089 21.647650 66.869319 5.075211 10.774729 -22.700428 0.000000 -0.000000 0.000000 -18.264625 -8.586370 -9.587803 10.598100 10.863695 43.838171 13.344784 4.756865 -14.425808 0.000000 -0.000000 0.000000 3.369484 15.703562 39.352996 -2.211442 4.887484 5.033020 1.391535 5.917961 -1.279357 2.726259 -12.221667 -16.167065 2.973530 -2.013490 -14.202155 -31.528743 -5.796021 9.707647 -45.088016 20.785602 14.714514 -5.748409 -52.117386 13.276840 31.265764 -2.352184 -12.671224 18.017245 29.954722 1.519470 11.704119 23.091649 -13.853409 -13.971643 7.646240 -35.129832 -14.634048 9.740445 23.127213 
0.026515 0.288248 0.880184 170.881800 1.919800 105.487343 12.352367 5.200212 -61.649809 -7.458794 20.636561 52.876530 3.022803 4.341755 -19.847072 0.000000 -0.000000 0.000000 -17.304540 -6.847923 -1.760574 5.003909 13.225788 40.712162 16.446986 3.727602 -0.206130 0.000000 -0.000000 0.000000 2.683047 16.089719 40.451684 -1.965330 2.879527 5.131049 1.673846 5.088480 -1.569051 3.726049 -13.823032 -17.164631 6.438036 -3.004967 -14.817032 -35.008127 -6.729336 9.283127 -47.239766 18.302712 13.115668 1.325890 -50.734947 4.246384 31.327032 -2.413525 -13.253702 22.244072 25.924687 1.045498 18.608543 19.793244 -14.630821 -20.451955 14.416781 -55.221495 -15.226699 4.938307 -4.556370 
0.013273 0.407950 0.875017 176.642286 0.971601 105.061577 8.109468 2.524014 -57.838763 -6.743478 21.271172 51.025265 4.112712 2.547425 -16.373076 0.000000 -0.000000 0.000000 -13.955653 -3.708014 -1.636107 2.874770 7.468417 55.668456 11.464068 -1.874484 -4.479735 0.000000 -0.000000 0.000000 1.913086 12.326480 39.718169 -1.081004 0.125057 5.494249 1.681229 3.155368 -1.703367 3.834271 -13.515269 -16.241083 6.649552 0.008205 -13.137846 -36.374884 -8.002657 9.663416 -52.102747 15.874271 10.113522 8.990973 -48.425339 -4.998555 29.872289 -1.882942 -12.842405 23.655930 23.801043 2.028930 28.291118 16.212161 -9.261119 -30.767032 23.199365 -58.351680 -15.261343 6.435885 -7.134349 
-0.001945 0.528425 0.862350 -178.253352 0.457005 104.559096 2.592775 -0.660791 -49.570002 -7.385557 17.317210 53.599954 13.746423 11.077028 -31.045082 0.000000 -0.000000 0.000000 -12.095775 -3.293262 -7.533499 2.780831 0.469415 76.573441 8.595590 -5.651275 -6.434562 0.000000 -0.000000 0.000000 1.652179 7.118049 38.808419 0.482051 -2.363730 3.657777 1.196136 0.690809 1.339794 4.984481 -11.816991 -17.957845 4.635485 2.213759 -12.695155 -37.212205 -8.512013 8.164069 -53.739607 11.213597 8.437127 12.706702 -46.505206 -11.503820 30.917799 -0.288223 -14.069984 23.895706 20.004314 -0.652259 35.942358 14.560950 -2.768165 -43.677409 32.638690 -64.106892 -14.945050 7.234707 -14.352132 
